<?xml version="1.0" encoding="UTF-8" standalone="no"?>
<!-- Created with Inkscape (http://www.inkscape.org/) -->

<svg
   xmlns:dc="http://purl.org/dc/elements/1.1/"
   xmlns:cc="http://creativecommons.org/ns#"
   xmlns:rdf="http://www.w3.org/1999/02/22-rdf-syntax-ns#"
   xmlns:svg="http://www.w3.org/2000/svg"
   xmlns="http://www.w3.org/2000/svg"
   xmlns:sodipodi="http://sodipodi.sourceforge.net/DTD/sodipodi-0.dtd"
   xmlns:inkscape="http://www.inkscape.org/namespaces/inkscape"
   width="48"
   height="48"
   viewBox="0 0 12.7 12.7"
   version="1.1"
   id="svg8"
   inkscape:version="0.92.4 (5da689c313, 2019-01-14)"
   sodipodi:docname="icon_click.svg">
  <defs
     id="defs2" />
  <sodipodi:namedview
     id="base"
     pagecolor="#ffffff"
     bordercolor="#666666"
     borderopacity="1.0"
     inkscape:pageopacity="0.0"
     inkscape:pageshadow="2"
     inkscape:zoom="11.2"
     inkscape:cx="2.4546034"
     inkscape:cy="19.782828"
     inkscape:document-units="mm"
     inkscape:current-layer="layer1"
     showgrid="true"
     units="px"
     inkscape:window-width="1920"
     inkscape:window-height="1033"
     inkscape:window-x="-8"
     inkscape:window-y="16"
     inkscape:window-maximized="1">
    <inkscape:grid
       type="xygrid"
       id="grid815" />
  </sodipodi:namedview>
  <metadata
     id="metadata5">
    <rdf:RDF>
      <cc:Work
         rdf:about="">
        <dc:format>image/svg+xml</dc:format>
        <dc:type
           rdf:resource="http://purl.org/dc/dcmitype/StillImage" />
        <dc:title />
      </cc:Work>
    </rdf:RDF>
  </metadata>
  <g
     inkscape:label="Calque 1"
     inkscape:groupmode="layer"
     id="layer1"
     transform="translate(0,-284.29998)">
    <path
       style="opacity:1;fill:#16d6c4;fill-opacity:1;stroke:#ff6e25;stroke-width:1.299;stroke-linecap:square;stroke-linejoin:miter;stroke-miterlimit:4;stroke-dasharray:none;stroke-dashoffset:5.19727087;stroke-opacity:1;paint-order:normal"
       id="path4576"
       d="m 1.8195482,290.68424 c 0.096264,-0.21971 0.1605221,-0.45172 0.2385234,-0.67817 0.027664,-0.0803 0.056987,-0.16004 0.08548,-0.24007 0.1922891,-0.51979 0.4072463,-1.03523 0.6932695,-1.51145 0.058777,-0.0978 0.1232734,-0.19216 0.1849102,-0.28824 0.2203237,-0.322 0.4858675,-0.61327 0.8054229,-0.83927 0.1892556,-0.13384 0.5156868,-0.29806 0.6804999,-0.38794 0.228841,-0.0963 0.4720228,-0.16675 0.7214975,-0.17192 0.018682,0.002 0.038439,9e-5 0.056053,0.007 0.077816,0.0292 0.086808,0.13652 0.091834,0.20398 0.011318,0.15186 -0.00203,0.18824 -0.021239,0.34992 -0.019989,0.0853 -0.034325,0.17216 -0.059962,0.25595 -0.068178,0.22284 -0.1905075,0.50771 -0.2868544,0.71416 -0.2175817,0.46626 -0.4748697,0.91184 -0.7269767,1.35981 -0.5062249,0.90646 -1.0362549,1.79937 -1.5371545,2.70882 -0.1731718,0.31727 -0.3439434,0.63629 -0.494733,0.96498 -0.041116,0.0897 -0.1434324,0.32583 -0.1794851,0.43069 -0.016055,0.0467 -0.026355,0.0951 -0.039532,0.14276 0.00318,0.0282 -0.00674,0.0613 0.00954,0.0845 0.026151,0.0373 0.1291344,-0.007 0.1814446,-0.0309 0.062994,-0.0314 0.1259886,-0.063 0.1889829,-0.0944 -0.017886,0.006 -0.068276,0.0297 -0.053661,0.0177 0.093829,-0.0763 0.1958191,-0.14193 0.2937286,-0.21288 0.7161318,-0.56965 1.2911748,-1.28829 1.8082174,-2.03788 0.1375384,-0.19941 0.2674742,-0.40395 0.4012113,-0.60592 0.1369669,-0.21661 0.2755532,-0.43222 0.4109009,-0.64984 0.3359238,-0.54015 0.4894165,-0.80202 0.8131078,-1.34841 0.2761236,-0.4661 0.443578,-0.75891 0.7273675,-1.21357 0.1050677,-0.16833 0.2143293,-0.33401 0.3214939,-0.50101 0.2381382,-0.35973 0.4981226,-0.70568 0.7976497,-1.01684 0.1095147,-0.11377 0.2279866,-0.2238 0.3556957,-0.3175 0.0429,-0.0315 0.089464,-0.0577 0.1341961,-0.0864 0.1439534,-0.0733 0.280995,-0.16214 0.4318607,-0.21988 0.033915,-0.0129 0.073365,0.002 0.1081371,0.0132 0.2365371,0.0712 0.2129675,0.37054 0.223158,0.56008 -0.01577,0.13512 -0.023313,0.27146 -0.047309,0.40534 -0.1793032,1.00046 -0.6249127,1.93445 -1.1104584,2.81832 -0.1566793,0.28523 -0.3269481,0.56275 -0.4904222,0.84413 -0.1672906,0.2664 -0.3311748,0.53495 -0.5018719,0.79918 -0.1532298,0.23719 -0.3109871,0.47144 -0.4698187,0.70491 -0.3307704,0.48619 -0.6723768,0.96569 -1.0423831,1.42302 -0.07039,0.087 -0.1441289,0.17125 -0.2161934,0.25686 -0.051373,0.0565 -0.1025028,0.11319 -0.1541178,0.16946 -0.1477703,0.16108 -0.2011931,0.23772 -0.4771901,0.27988 -0.036501,0.006 0.036946,-0.064 0.057627,-0.0946 0.041974,-0.062 0.086822,-0.12218 0.1302332,-0.18329 0.5670302,-0.78193 1.1847582,-1.52565 1.8326068,-2.2417 0.1661475,-0.18364 0.3365199,-0.3634 0.50478,-0.54511 0.4357731,-0.46421 0.8831462,-0.91803 1.3520339,-1.34897 0.1238377,-0.11381 0.449541,-0.40317 0.6034469,-0.52165 0.050609,-0.039 0.1062597,-0.0708 0.1593891,-0.10633 0.1284782,-0.0445 0.2541257,-0.16881 0.3854348,-0.13351 0.073715,0.0197 -0.027039,0.15161 -0.057279,0.2217 -0.053099,0.12306 -0.122593,0.23857 -0.1910395,0.35382 -0.2067598,0.34809 -0.4569515,0.70941 -0.6946236,1.03384 -0.1518792,0.20733 -0.3108504,0.40937 -0.4662754,0.61405 -0.8400676,1.05331 -1.7762064,2.0236 -2.69332,3.0088 -0.1093533,0.1198 -0.2730533,0.28912 -0.3730882,0.42888 -0.018561,0.026 -0.044933,0.053 -0.044202,0.0848 5.813e-4,0.0248 0.064577,-0.0446 0.044781,-0.0597 -0.026482,-0.0201 -0.06521,0.0129 -0.097816,0.0193 0.1217508,-0.098 0.2435017,-0.19591 0.3652524,-0.29385 1.1203991,-0.93033 2.2245825,-1.87977 3.3298043,-2.82797 0.4160047,-0.35887 0.8436624,-0.7049 1.2997398,-1.01194 0.09946,-0.0669 0.199459,-0.13346 0.303526,-0.19302 0.531238,-0.30401 0.345904,-0.25507 0.710672,-0.31015 0.04177,0.0307 0.09701,0.0486 0.125284,0.092 0.08686,0.13336 0.05005,0.34208 0.02546,0.47613 -0.08688,0.47383 -0.288316,0.91681 -0.471363,1.35847 -0.283265,0.62909 -0.622804,1.23265 -1.0079117,1.80496 -0.145422,0.21612 -0.2464018,0.34668 -0.3982409,0.54985 -0.1014009,0.13804 -0.2196888,0.26244 -0.3199425,0.40129 -0.017944,0.0248 -0.04203,0.058 -0.052545,0.0891 -0.03156,-0.15416 0.00346,-0.0439 -0.3186744,0.13697 0,0 0.3534583,-0.15187 0.3534583,-0.15187 v 0 c -0.3564929,0.22617 -0.2363286,0.30099 -0.3779335,0.19362 -0.00136,-0.007 -0.00572,-0.0163 -0.00406,-0.0243 0.0062,-0.0299 0.046276,-0.0803 0.059625,-0.0976 0.1098047,-0.14328 0.2379449,-0.27088 0.3488668,-0.41333 0.1608194,-0.20559 0.2678977,-0.33738 0.4209924,-0.55714 0.3958903,-0.5683 0.7417525,-1.17228 1.0230905,-1.80532 0.175902,-0.43348 0.365631,-0.86548 0.438302,-1.33159 0.01697,-0.10886 0.04656,-0.31857 -0.02804,-0.43271 -0.02315,-0.0354 -0.06966,-0.048 -0.104503,-0.0721 -0.05512,0.009 -0.11077,0.0388 -0.165351,0.027 -0.02338,-0.006 0.07045,-0.0634 0.04942,-0.052 -0.110033,0.0592 -0.214405,0.12879 -0.318915,0.1974 -0.4706825,0.30905 -0.9119883,0.6593 -1.3398053,1.02479 -1.0984823,0.9349 -2.1927987,1.87473 -3.2891468,2.81211 -0.3169639,0.26761 -0.464959,0.41644 -0.8584632,0.62322 -0.025839,0.0136 -0.079481,0.009 -0.085196,-0.0202 -0.00762,-0.038 0.037544,-0.0684 0.061353,-0.0992 0.050065,-0.0646 0.1045681,-0.12575 0.1596829,-0.18611 0.080404,-0.0881 0.1644938,-0.1727 0.2467405,-0.25904 0.9427975,-0.981 1.8953776,-1.95678 2.7403828,-3.02525 0.1511953,-0.20246 0.3065198,-0.4019 0.4535856,-0.60737 0.2273437,-0.31765 0.4614573,-0.66768 0.6526935,-1.01107 0.060719,-0.10908 0.1144209,-0.22193 0.1660497,-0.33555 0.024649,-0.0542 0.023132,-0.12275 0.062525,-0.16745 0.072998,-0.0829 0.1751724,-0.13446 0.2627589,-0.2017 -0.060992,0.0371 -0.1251464,0.0695 -0.1829784,0.1113 -0.1633092,0.11818 -0.5062813,0.4154 -0.6373732,0.53313 -0.4803409,0.43138 -0.9369744,0.88854 -1.3796855,1.35822 -0.1677253,0.18125 -0.3379388,0.36021 -0.5031762,0.54371 -0.6289689,0.69852 -1.229324,1.426 -1.7566014,2.20493 -0.037851,0.0581 -0.075811,0.11617 -0.113552,0.17436 -0.016803,0.026 -0.023851,0.0617 -0.050083,0.078 -0.1114104,0.0693 -0.2325642,0.12201 -0.3535089,0.17274 -0.021549,0.009 0.035508,-0.0304 0.052474,-0.0465 0.099579,-0.0942 0.1790297,-0.1783 0.2775078,-0.27908 0.078262,-0.0879 0.1584491,-0.17399 0.2347874,-0.2635 0.3935073,-0.46142 0.7548477,-0.94932 1.1020524,-1.44619 0.1641077,-0.23484 0.3268778,-0.4707 0.4839703,-0.7103 0.173085,-0.26399 0.3376134,-0.5335 0.5064201,-0.80024 0.1616641,-0.28013 0.3310075,-0.55595 0.4849921,-0.84037 0.4673611,-0.86323 0.8949277,-1.79044 1.0356185,-2.77118 0.018502,-0.12898 0.019581,-0.25986 0.029372,-0.38979 -0.013803,-0.14188 -9.01e-4,-0.3666 -0.1376262,-0.46754 -0.023715,-0.0175 -0.052095,-0.0294 -0.080887,-0.0357 -0.031284,-0.007 -0.1146954,0.023 -0.096031,-0.003 0.046705,-0.0651 0.131346,-0.0918 0.1970191,-0.13781 -0.047686,0.0286 -0.097278,0.0541 -0.1430591,0.0858 -0.1358197,0.0935 -0.2627638,0.2056 -0.3793905,0.32135 -0.3145232,0.31216 -0.5877053,0.66224 -0.8369939,1.02795 -0.1112729,0.16856 -0.2250342,0.33547 -0.3338188,0.50563 -0.5388492,0.8429 -1.0287443,1.71614 -1.5532311,2.56791 -0.1334032,0.21662 -0.2694573,0.43163 -0.4041859,0.64745 -0.1305521,0.20098 -0.2573118,0.40448 -0.3916559,0.60294 -0.5028088,0.74279 -1.0606307,1.45692 -1.7582513,2.0276 -0.381314,0.28488 -0.3068807,0.24372 -0.8234622,0.53747 -0.065294,0.0371 -0.1327545,0.0715 -0.20346,0.0969 -0.056625,0.0203 -0.1763308,0.0639 -0.2224503,-0.0194 -0.01638,-0.0295 -0.00464,-0.0674 -0.00696,-0.10117 0.015467,-0.05 0.028045,-0.10107 0.046399,-0.15006 0.036166,-0.0967 0.1569046,-0.36079 0.1949073,-0.44022 0.158613,-0.33153 0.334128,-0.65465 0.5134545,-0.97534 0.5100049,-0.90933 1.047291,-1.80309 1.5518627,-2.71551 0.2470797,-0.44339 0.4990566,-0.88486 0.7085626,-1.3478 0.094134,-0.20802 0.202937,-0.47404 0.2662157,-0.69766 0.023005,-0.0813 0.03504,-0.16531 0.05256,-0.24795 0.015567,-0.15956 0.027272,-0.186 0.01221,-0.33394 -0.00276,-0.0272 -0.013138,-0.11046 -0.039882,-0.14086 -0.020053,-0.0228 -0.059293,-0.0194 -0.084086,-0.0216 -0.2404926,0.009 -0.4743869,0.0743 -0.6940912,0.17085 0.039059,-0.0276 0.1605021,-0.10282 0.117179,-0.0828 -0.070018,0.0326 -0.1342231,0.0768 -0.1980529,0.12037 -0.3256809,0.22204 -0.5977353,0.51159 -0.8226413,0.83377 -0.062115,0.0956 -0.1271097,0.18935 -0.186346,0.28674 -0.2860543,0.47031 -0.500639,0.98096 -0.6817578,1.4995 -0.1023292,0.29977 -0.1909672,0.60356 -0.2887933,0.90472 0,0 -0.3501776,0.16092 -0.3501776,0.16092 z"
       inkscape:connector-curvature="0" />
    <path
       style="opacity:1;vector-effect:none;fill:#00e26d;fill-opacity:1;stroke:#000000;stroke-width:0.5;stroke-linecap:round;stroke-linejoin:round;stroke-miterlimit:4;stroke-dasharray:none;stroke-dashoffset:0;stroke-opacity:1"
       d="m 3.9580728,288.49512 1.2579937,5.0645 1.3229183,-1.29619 3.3330517,3.40179 1.1339305,-1.11102 -3.3330522,-3.40179 1.3229185,-1.29618 z"
       id="path4520"
       inkscape:connector-curvature="0"
       sodipodi:nodetypes="cccccccc" />
    <path
       style="opacity:1;vector-effect:none;fill:none;fill-opacity:1;stroke:#000000;stroke-width:0.5;stroke-linecap:round;stroke-linejoin:round;stroke-miterlimit:4;stroke-dasharray:none;stroke-dashoffset:0;stroke-opacity:1"
       d="M 0.52916667,289.59165 2.6458333,289.06248"
       id="path4522"
       inkscape:connector-curvature="0"
       sodipodi:nodetypes="cc" />
    <path
       style="opacity:1;vector-effect:none;fill:none;fill-opacity:1;stroke:#000000;stroke-width:0.5;stroke-linecap:round;stroke-linejoin:round;stroke-miterlimit:4;stroke-dasharray:none;stroke-dashoffset:0;stroke-opacity:1"
       d="M 0.26458333,286.94581 2.38125,288.00415"
       id="path4524"
       inkscape:connector-curvature="0"
       sodipodi:nodetypes="cc" />
    <path
       style="opacity:1;vector-effect:none;fill:none;fill-opacity:1;stroke:#000000;stroke-width:0.5;stroke-linecap:round;stroke-linejoin:round;stroke-miterlimit:4;stroke-dasharray:none;stroke-dashoffset:0;stroke-opacity:1"
       d="m 4.4979167,285.09373 v 2.38125"
       id="path4526"
       inkscape:connector-curvature="0"
       sodipodi:nodetypes="cc" />
    <path
       style="opacity:1;vector-effect:none;fill:none;fill-opacity:1;stroke:#000000;stroke-width:0.5;stroke-linecap:round;stroke-linejoin:round;stroke-miterlimit:4;stroke-dasharray:none;stroke-dashoffset:0;stroke-opacity:1"
       d="m 1.5875,285.35831 1.3229167,1.85209"
       id="path4528"
       inkscape:connector-curvature="0"
       sodipodi:nodetypes="cc" />
    <path
       style="opacity:1;vector-effect:none;fill:none;fill-opacity:1;stroke:#000000;stroke-width:0.5;stroke-linecap:round;stroke-linejoin:round;stroke-miterlimit:4;stroke-dasharray:none;stroke-dashoffset:0;stroke-opacity:1"
       d="m 0.79375,291.44373 0.5291667,0.26458"
       id="path4534"
       inkscape:connector-curvature="0"
       sodipodi:nodetypes="cc" />
    <path
       style="opacity:1;vector-effect:none;fill:none;fill-opacity:1;stroke:#000000;stroke-width:0.5;stroke-linecap:round;stroke-linejoin:round;stroke-miterlimit:4;stroke-dasharray:none;stroke-dashoffset:0;stroke-opacity:1"
       d="M 1.3229167,290.12081 1.5875,290.64998"
       id="path4536"
       inkscape:connector-curvature="0"
       sodipodi:nodetypes="cc" />
    <path
       style="opacity:1;vector-effect:none;fill:none;fill-opacity:1;stroke:#000000;stroke-width:0.5;stroke-linecap:round;stroke-linejoin:round;stroke-miterlimit:4;stroke-dasharray:none;stroke-dashoffset:0;stroke-opacity:1"
       d="m 2.9104167,289.85623 -0.2645834,1.05833"
       id="path4538"
       inkscape:connector-curvature="0"
       sodipodi:nodetypes="cc" />
    <path
       style="opacity:1;vector-effect:none;fill:none;fill-opacity:1;stroke:#000000;stroke-width:0.5;stroke-linecap:round;stroke-linejoin:round;stroke-miterlimit:4;stroke-dasharray:none;stroke-dashoffset:0;stroke-opacity:1"
       d="m 11.377083,287.47498 0.79375,-0.52917"
       id="path4540"
       inkscape:connector-curvature="0"
       sodipodi:nodetypes="cc" />
    <path
       style="opacity:1;vector-effect:none;fill:none;fill-opacity:1;stroke:#000000;stroke-width:0.5;stroke-linecap:round;stroke-linejoin:round;stroke-miterlimit:4;stroke-dasharray:none;stroke-dashoffset:0;stroke-opacity:1"
       d="m 10.583333,289.06248 0.264584,1.05833"
       id="path4542"
       inkscape:connector-curvature="0"
       sodipodi:nodetypes="cc" />
    <path
       style="opacity:1;vector-effect:none;fill:none;fill-opacity:1;stroke:#000000;stroke-width:0.5;stroke-linecap:round;stroke-linejoin:round;stroke-miterlimit:4;stroke-dasharray:none;stroke-dashoffset:0;stroke-opacity:1"
       d="m 12.170833,289.06248 -0.79375,-0.52917"
       id="path4544"
       inkscape:connector-curvature="0"
       sodipodi:nodetypes="cc" />
    <path
       style="opacity:1;vector-effect:none;fill:#16d6c4;fill-opacity:1;stroke:#000000;stroke-width:0.5;stroke-linecap:round;stroke-linejoin:round;stroke-miterlimit:4;stroke-dasharray:none;stroke-dashoffset:0;stroke-opacity:1"
       d="m 2.0507117,291.39037 -0.6321713,2.71983 0.9457948,-0.29606 0.7612373,2.43204 0.8106796,-0.25376 L 3.175,293.5604 4.1207871,293.26436 Z"
       id="path4520-9"
       inkscape:connector-curvature="0"
       sodipodi:nodetypes="cccccccc" />
    <path
       style="opacity:1;vector-effect:none;fill:#dbe633;fill-opacity:1;stroke:#000000;stroke-width:0.5;stroke-linecap:round;stroke-linejoin:round;stroke-miterlimit:4;stroke-dasharray:none;stroke-dashoffset:0;stroke-opacity:1"
       d="M 10.780043,288.14777 9.083975,285.92956 8.710611,286.8476 6.35,285.88748 l -0.320023,0.78688 2.360593,0.96008 -0.373368,0.91802 z"
       id="path4520-9-3"
       inkscape:connector-curvature="0"
       sodipodi:nodetypes="cccccccc" />
  </g>
</svg>
