/* XPM */
static char *icon[] = {
/* columns rows colors chars-per-pixel */
"32 32 113 2 ",
"   c None",
".  c #010201",
"X  c #040A05",
"o  c #0B0B02",
"O  c #110E02",
"+  c #0F1104",
"@  c #051509",
"#  c #021B0D",
"$  c #141204",
"%  c #191404",
"&  c #171806",
"*  c #1A1A06",
"=  c #1A1C08",
"-  c #031E1C",
";  c #211C06",
":  c #05210F",
">  c #042D15",
",  c #08211B",
"<  c #043B1C",
"1  c #262006",
"2  c #292206",
"3  c #242208",
"4  c #29270B",
"5  c #2B2A0A",
"6  c #372D08",
"7  c #382E08",
"8  c #37340B",
"9  c #3B350D",
"0  c #3D3F0E",
"q  c #0B2E26",
"w  c #0A3129",
"e  c #063833",
"r  c #0B3B33",
"t  c #453C0B",
"y  c #493E0B",
"u  c #00411F",
"i  c #034621",
"p  c #034D24",
"a  c #015227",
"s  c #015C2C",
"d  c #07453F",
"f  c #006C34",
"g  c #007C3C",
"h  c #43460F",
"j  c #4C410C",
"k  c #52440C",
"l  c #5B4A0D",
"z  c #65530F",
"x  c #675610",
"c  c #6E5A10",
"v  c #5F6316",
"b  c #626717",
"n  c #636817",
"m  c #656A18",
"M  c #776211",
"N  c #7B6512",
"B  c #6B7119",
"V  c #73791B",
"C  c #074640",
"Z  c #0A5E56",
"A  c #0A625A",
"S  c #0B6B62",
"D  c #0D7F74",
"F  c #826C13",
"G  c #8D7315",
"H  c #957A15",
"J  c #9A7E16",
"K  c #00823F",
"L  c #008B43",
"P  c #009347",
"I  c #009649",
"U  c #00A851",
"Y  c #00BC5B",
"T  c #0E8A7E",
"R  c #00C45E",
"E  c #00CC62",
"W  c #00D466",
"Q  c #00DB6A",
"!  c #00E26D",
"~  c #82881E",
"^  c #A58718",
"/  c #A78919",
"(  c #AD8F19",
")  c #B3931A",
"_  c #BD9B1C",
"`  c #8F9621",
"'  c #979F23",
"]  c #9BA324",
"[  c #A2AA26",
"{  c #C4A11C",
"}  c #CAA51D",
"|  c #CEA91E",
" . c #D3AC1E",
".. c #D6B01E",
"X. c #D8B21F",
"o. c #D2AB20",
"O. c #DDB520",
"+. c #E4BB21",
"@. c #BDC72C",
"#. c #C0C92D",
"$. c #EDC222",
"%. c #F1C623",
"&. c #F5C924",
"*. c #FACD24",
"=. c #FFD125",
"-. c #DBE633",
";. c #10978A",
":. c #10998C",
">. c #12AB9D",
",. c #13BBAB",
"<. c #14C3B3",
"1. c #15CDBC",
"2. c #16D5C3",
/* pixels */
"                                                                ",
"                                                                ",
"        .             .                 =.=.=.=.                ",
"        .             .               =.=.=.) |                 ",
"          .           . =.=.  o o . y _ *.*.$ % ..              ",
"          . .       ( o =.*.^ . [ ] h . 1 l o 5 ;               ",
". .         . o =.=.) o =.=.| X . 8 ` @.B & b @.o .         .   ",
"  . . .       ; =.*.) o =.=.=.  } z o $ m #.-.-.' .     . . .   ",
"      . . . | =.=.=.X.F =.=.=.=.=.=.%.6 $ h -.-.-.n X           ",
"          o F *.=.*.  =.=.*.  =.=.=.=.  o V [ ~ n 0 . .         ",
"          =.=.*.=.& o k J  .=.=.=.=.  J . . . ; t l     . .     ",
"          ^ c +.  z X a @ . = x (     %.)  .&.=.*.=.      . .   ",
"    . . . O k +.  } . E ! R L p X . 3 M _ &.=.=.=.  O F =.  .   ",
"  . .   | *.+.z =.=.o P ! ! ! ! Q U f > . o j +.=.*.x j =.=.    ",
"      O &.=.G O =.=.j s ! ! ! ! ! ! ! ! E # $ +.=.=.^ % =.=.    ",
"      O G =.y l =.=.F : ! ! ! ! ! ! ! Q < & O.=.=.=.*. .=.=.    ",
"      ) ) *.$ ^ =.=.{ . E ! ! ! ! ! Q < = O.=.=.=.=.=.=.=.      ",
"    c &.^ ; { *.=.=.=.o I ! ! ! ! ! Y . N =.=.=.    =.=.=.      ",
"    o X . . 9 &.=.=.=.t s ! ! ! ! ! ! P . H =.    =.=.=.=.      ",
"        X Z , 4 +.=.=.G : ! ! W g Q ! ! L . 7     =.=.=.        ",
"        . >.<.w = O.*./ . E W > . < Q ! ! L .   =.=.=.=.        ",
"        X 2.2.1.r + )   o L > 3 } * < Q ! ! L . ^ =.=.          ",
"      j r 2.2.,.S . X *.t . 4 $.*.O.$ < Q ! ! K . ^ =.          ",
"      5 C A :.Z X X ) =.J 8 $.=.*.    . i Q ! ! g .             ",
"      X . O q ;..     =.=.=.=.=.        . i ! ! ! g .           ",
"        +.( . ,.X     =.=.=.=.            $ p Q ! ! f .         ",
"            . D e X   =.=.=.               .+ a Q W > .         ",
"            . e ;.X                         o.X a > .           ",
"              . ,..                         =.  . X             ",
"              X - .                         =.                  ",
"                .                                               ",
"                                                                "
};
