/* XPM */
static char *icon[] = {
/* columns rows colors chars-per-pixel */
"32 32 4 1 ",
"  c None",
". c #EE0000",
"X c #EF0000",
"o c #F00000",
/* pixels */
"                                ",
" oX         XXX  oXXXXXXXXXXXXX ",
" XX         XXX  XXXXXXXXXXXXXo ",
" XX        XXX                  ",
" XX       XXXX                  ",
" XX       XXX    XX          XX ",
" XX      XXX     XXo        oXX ",
" XX     oXXX     XXX        XXX ",
" XX     XXX       XXX      XXX  ",
" XX    XXX        XXX      XXX  ",
" XX   XXXX         XXX    XXX   ",
" XX   XXX          XXX    XXX   ",
" XX  oXX            XXX  XXX    ",
" XX  XXX            oXX  XXo    ",
" Xo  XX              XX  XX     ",
"                                ",
"                                ",
" oX  XX              XX  XX     ",
" XX  XXX            oXX  XXo    ",
" XX  oXX            XXX  XXX    ",
" XX   XXX          XXX    XXX   ",
" XX   XXXX         XXX    XXX   ",
" XX    XXX        XXX      XXX  ",
" XX     XXX       XXX      XXX  ",
" XX     oXXX     XXX        XXX ",
" XX      XXX     XXo        oXX ",
" XX       XXX    XX          XX ",
" XX       XXXX                  ",
" XX        XXX                  ",
" XX         XXX  oXXXXXXXXXXXXX ",
" Xo         XXX  XXXXXXXXXXXXXo ",
"                                "
};
